<svg xmlns="http://www.w3.org/2000/svg" viewBox="0 0 120 120" width="120" height="120">
  <defs>
    <radialGradient id="bSkinH" cx="50%" cy="42%" r="50%">
      <stop offset="0%" stop-color="#FFF8F5"/>
      <stop offset="100%" stop-color="#FFE8DD"/>
    </radialGradient>
    <linearGradient id="bHairH" x1="20%" y1="0%" x2="80%" y2="100%">
      <stop offset="0%" stop-color="#1C1C30"/>
      <stop offset="100%" stop-color="#0A0A18"/>
    </linearGradient>
  </defs>

  <!-- Onesie body -->
  <path d="M36 80 Q33 95 30 115 L90 115 Q87 95 84 80 Z" fill="#6CA8E8" stroke="#5090D0" stroke-width="0.5"/>
  <path d="M42 78 Q48 73 60 72 Q72 73 78 78 Q72 82 60 84 Q48 82 42 78 Z" fill="white" stroke="#E8E8E8" stroke-width="0.4"/>

  <rect x="55" y="68" width="10" height="10" rx="3" fill="url(#bSkinH)"/>

  <!-- Head -->
  <circle cx="60" cy="42" r="32" fill="url(#bSkinH)" stroke="#F0D0C0" stroke-width="0.3"/>

  <!-- Hair -->
  <path d="M30 38 Q28 15 42 8 Q52 2 60 1 Q68 2 78 8 Q92 15 90 38 Q92 50 90 60 L87 58 Q88 48 88 40 Q88 20 76 12 Q66 5 60 4 Q54 5 44 12 Q32 20 32 40 Q32 48 33 58 L30 60 Q28 50 30 38 Z" fill="url(#bHairH)"/>
  <path d="M32 36 Q30 22 40 12 Q48 6 56 4 L52 12 Q42 18 38 30 Q34 40 34 52 Q32 56 30 54 Q30 44 32 36 Z" fill="url(#bHairH)"/>
  <path d="M88 36 Q90 22 80 12 Q72 6 64 4 L68 12 Q78 18 82 30 Q86 40 86 52 Q88 56 90 54 Q90 44 88 36 Z" fill="url(#bHairH)"/>
  <path d="M34 28 Q36 10 50 4 Q56 1 60 0 Q64 1 70 4 Q84 10 86 28 Q76 14 60 10 Q44 14 34 28 Z" fill="#1C1C30"/>
  <!-- Curls -->
  <path d="M30 53 Q26 58 28 62 Q32 64 35 58 Q36 54 34 52" fill="#0A0A18"/>
  <path d="M90 53 Q94 58 92 62 Q88 64 85 58 Q84 54 86 52" fill="#0A0A18"/>

  <!-- Headband -->
  <path d="M32 25 Q36 12 48 6 Q54 2 60 1 Q66 2 72 6 Q84 12 88 25" fill="none" stroke="#DD2244" stroke-width="3.5" stroke-linecap="round"/>
  <path d="M60 3 Q52 -4 50 0 Q48 4 54 7 Q58 4 60 3 Z" fill="#DD2244"/>
  <path d="M60 3 Q68 -4 70 0 Q72 4 66 7 Q62 4 60 3 Z" fill="#DD2244"/>
  <circle cx="60" cy="3" r="2.5" fill="#EE3355"/>

  <!-- Eyebrows raised -->
  <path d="M39 29 Q44 27 51 28" fill="none" stroke="#2A2A3E" stroke-width="0.8" stroke-linecap="round" opacity="0.4"/>
  <path d="M69 28 Q76 27 81 29" fill="none" stroke="#2A2A3E" stroke-width="0.8" stroke-linecap="round" opacity="0.4"/>

  <!-- Happy eyes (^_^) closed arcs - thicker, cuter -->
  <path d="M36 43 Q48 32 58 43" fill="none" stroke="#2A2A3E" stroke-width="2.8" stroke-linecap="round"/>
  <path d="M62 43 Q72 32 84 43" fill="none" stroke="#2A2A3E" stroke-width="2.8" stroke-linecap="round"/>
  <!-- Tiny lashes -->
  <line x1="37" y1="42" x2="34" y2="38" stroke="#1A1A2E" stroke-width="1.2" stroke-linecap="round"/>
  <line x1="83" y1="42" x2="86" y2="38" stroke="#1A1A2E" stroke-width="1.2" stroke-linecap="round"/>

  <!-- Nose (tiny dot) -->
  <circle cx="60" cy="52" r="1.8" fill="#FFD0C0"/>

  <!-- Big rosy cheeks -->
  <ellipse cx="33" cy="52" rx="10" ry="7" fill="#FFB0B8" opacity="0.65"/>
  <ellipse cx="87" cy="52" rx="10" ry="7" fill="#FFB0B8" opacity="0.65"/>
  <!-- Hearts on cheeks -->
  <path d="M30 50 Q30 48.5 31.2 48.5 Q32 48.5 32 50 Q32 48.5 32.8 48.5 Q34 48.5 34 50 Q34 51.5 32 53 Q30 51.5 30 50 Z" fill="#FF8899" opacity="0.4"/>
  <path d="M86 50 Q86 48.5 87.2 48.5 Q88 48.5 88 50 Q88 48.5 88.8 48.5 Q90 48.5 90 50 Q90 51.5 88 53 Q86 51.5 86 50 Z" fill="#FF8899" opacity="0.4"/>

  <!-- Big happy smile (wider) -->
  <path d="M46 57 Q53 68 60 69 Q67 68 74 57" fill="#F5A0A8" stroke="#DD4466" stroke-width="1" stroke-linecap="round"/>
  <!-- Tongue -->
  <ellipse cx="60" cy="65" rx="4.5" ry="3" fill="#FF8888" opacity="0.5"/>

  <!-- Sparkles -->
  <g transform="translate(16,20)">
    <line x1="0" y1="-4" x2="0" y2="4" stroke="#FFD700" stroke-width="1.2" stroke-linecap="round"/>
    <line x1="-4" y1="0" x2="4" y2="0" stroke="#FFD700" stroke-width="1.2" stroke-linecap="round"/>
    <line x1="-2.5" y1="-2.5" x2="2.5" y2="2.5" stroke="#FFD700" stroke-width="0.7" stroke-linecap="round"/>
    <line x1="2.5" y1="-2.5" x2="-2.5" y2="2.5" stroke="#FFD700" stroke-width="0.7" stroke-linecap="round"/>
  </g>
  <g transform="translate(104,18)">
    <line x1="0" y1="-3" x2="0" y2="3" stroke="#FFD700" stroke-width="1" stroke-linecap="round"/>
    <line x1="-3" y1="0" x2="3" y2="0" stroke="#FFD700" stroke-width="1" stroke-linecap="round"/>
  </g>
  <circle cx="24" cy="12" r="1.2" fill="#FFD700" opacity="0.6"/>
  <circle cx="96" cy="30" r="1" fill="#FFD700" opacity="0.5"/>

  <!-- Arms raised in joy -->
  <path d="M34 84 Q24 76 20 70" fill="none" stroke="#FFE8DD" stroke-width="6" stroke-linecap="round"/>
  <path d="M86 84 Q96 76 100 70" fill="none" stroke="#FFE8DD" stroke-width="6" stroke-linecap="round"/>
</svg>