<svg xmlns="http://www.w3.org/2000/svg" viewBox="0 0 120 120" width="120" height="120">
  <defs>
    <radialGradient id="babySkin" cx="0.5" cy="0.45" r="0.5">
      <stop offset="0%" stop-color="#FFF8F5"/>
      <stop offset="100%" stop-color="#FFE8E0"/>
    </radialGradient>
  </defs>
  <circle cx="60" cy="60" r="45" fill="url(#babySkin)"/>
  <!-- Hair tuft -->
  <path d="M42,22 Q48,8 60,6 Q72,8 78,22 Q72,14 60,12 Q48,14 42,22Z" fill="#F5E6A0"/>
  <path d="M30,35 Q28,28 35,24 Q32,30 32,36Z" fill="#F0DC80"/>
  <path d="M90,35 Q92,28 85,24 Q88,30 88,36Z" fill="#F0DC80"/>
  <!-- Sad eyes (big, teary) -->
  <ellipse cx="47" cy="55" rx="9" ry="10" fill="white"/>
  <ellipse cx="47" cy="56" rx="7" ry="8" fill="#81D4FA"/>
  <circle cx="47" cy="57" r="4" fill="#0288D1"/>
  <circle cx="44" cy="53" r="2.5" fill="white"/>
  <ellipse cx="73" cy="55" rx="9" ry="10" fill="white"/>
  <ellipse cx="73" cy="56" rx="7" ry="8" fill="#81D4FA"/>
  <circle cx="73" cy="57" r="4" fill="#0288D1"/>
  <circle cx="70" cy="53" r="2.5" fill="white"/>
  <!-- Tear drops -->
  <ellipse cx="40" cy="68" rx="2" ry="3" fill="rgba(79,195,247,0.5)"/>
  <ellipse cx="80" cy="70" rx="2" ry="3" fill="rgba(79,195,247,0.5)"/>
  <!-- Cheeks -->
  <ellipse cx="36" cy="66" rx="8" ry="5" fill="rgba(255,182,193,0.3)"/>
  <ellipse cx="84" cy="66" rx="8" ry="5" fill="rgba(255,182,193,0.3)"/>
  <!-- Nose -->
  <circle cx="60" cy="65" r="2" fill="rgba(230,180,160,0.4)"/>
  <!-- Sad mouth (frown) -->
  <path d="M50,80 Q56,74 60,74 Q64,74 70,80" stroke="#90CAF9" stroke-width="2" fill="none" stroke-linecap="round"/>
</svg>
